<svg width="24" height="24" viewBox="0 0 24 24" fill="none" xmlns="http://www.w3.org/2000/svg">
<path d="M21 7C20.45 7 20 6.55 20 6V4L18 4C17.45 4 17 3.55 17 3C17 2.45 17.45 2 18 2L21 2C21.55 2 22 2.45 22 3V6C22 6.55 21.55 7 21 7ZM22 21V18C22 17.45 21.55 17 21 17C20.45 17 20 17.45 20 18V20H18C17.45 20 17 20.45 17 21C17 21.55 17.45 22 18 22H21C21.55 22 22 21.55 22 21ZM3 22H6C6.55 22 7 21.55 7 21C7 20.45 6.55 20 6 20H4V18C4 17.45 3.55 17 3 17C2.45 17 2 17.45 2 18L2 21C2 21.55 2.45 22 3 22ZM2 3L2 6C2 6.55 2.45 7 3 7C3.55 7 4 6.55 4 6V4L6 4C6.55 4 7 3.55 7 3C7 2.45 6.55 2 6 2L3 2C2.45 2 2 2.45 2 3Z" fill="#636164"/>
<path d="M6.4 16.5506C6.4 16.7439 6.2433 16.9006 6.05 16.9006H5.35C5.1567 16.9006 5 16.7439 5 16.5506L5 7.45059C5 7.25729 5.1567 7.10059 5.35 7.10059L6.05 7.10059C6.2433 7.10059 6.4 7.25729 6.4 7.45059L6.4 16.5506Z" fill="#636164"/>
<path d="M18.6494 7.10059H17.9494C17.7561 7.10059 17.5994 7.25729 17.5994 7.45059V16.5506C17.5994 16.7439 17.7561 16.9006 17.9494 16.9006H18.6494C18.8427 16.9006 18.9994 16.7439 18.9994 16.5506L18.9994 7.45059C18.9994 7.25729 18.8427 7.10059 18.6494 7.10059Z" fill="#636164"/>
<path d="M13.0503 7.10059C12.857 7.10059 12.7003 7.25729 12.7003 7.45059L12.7003 15.1506C12.7003 15.3439 12.857 15.5006 13.0503 15.5006C13.2436 15.5006 13.4003 15.3439 13.4003 15.1506L13.4003 7.45059C13.4003 7.25729 13.2436 7.10059 13.0503 7.10059Z" fill="#636164"/>
<path d="M8.14968 7.10059C7.95638 7.10059 7.79968 7.25729 7.79968 7.45059L7.79968 15.1506C7.79968 15.3439 7.95638 15.5006 8.14968 15.5006C8.34298 15.5006 8.49968 15.3439 8.49968 15.1506L8.49968 7.45059C8.49968 7.25729 8.34298 7.10059 8.14968 7.10059Z" fill="#636164"/>
<path d="M15.8497 7.10059H15.1497C14.9564 7.10059 14.7997 7.25729 14.7997 7.45059L14.7997 15.1506C14.7997 15.3439 14.9564 15.5006 15.1497 15.5006H15.8497C16.043 15.5006 16.1997 15.3439 16.1997 15.1506V7.45059C16.1997 7.25729 16.043 7.10059 15.8497 7.10059Z" fill="#636164"/>
<path d="M11.3006 7.45059C11.3006 7.25729 11.1439 7.10059 10.9506 7.10059H10.2506C10.0573 7.10059 9.9006 7.25729 9.9006 7.45059L9.9006 15.1506C9.9006 15.3439 10.0573 15.5006 10.2506 15.5006H10.9506C11.1439 15.5006 11.3006 15.3439 11.3006 15.1506L11.3006 7.45059Z" fill="#636164"/>
</svg>
