<svg width="85" height="85" viewBox="0 0 85 85" fill="none" xmlns="http://www.w3.org/2000/svg">
<path d="M19.4793 14.1665C18.5013 14.1665 17.7085 14.9593 17.7085 15.9373C17.7085 16.9153 18.5013 17.7082 19.4793 17.7082H65.521C66.499 17.7082 67.2918 16.9153 67.2918 15.9373C67.2918 14.9593 66.499 14.1665 65.521 14.1665H19.4793Z" fill="#02070D"/>
<path d="M12.396 21.2498C11.418 21.2498 10.6252 22.0427 10.6252 23.0207C10.6252 23.9987 11.418 24.7915 12.396 24.7915H72.6043C73.5823 24.7915 74.3752 23.9987 74.3752 23.0207C74.3752 22.0427 73.5823 21.2498 72.6043 21.2498H12.396Z" fill="#02070D"/>
<path d="M23.021 42.4998C23.999 42.4998 24.7918 43.2927 24.7918 44.2707V54.8957C24.7918 55.8737 23.999 56.6665 23.021 56.6665C22.043 56.6665 21.2502 55.8737 21.2502 54.8957V44.2707C21.2502 43.2927 22.043 42.4998 23.021 42.4998Z" fill="#02070D"/>
<path d="M63.7502 44.2707C63.7502 43.2927 62.9573 42.4998 61.9793 42.4998C61.0013 42.4998 60.2085 43.2927 60.2085 44.2707V54.8957C60.2085 55.8737 61.0013 56.6665 61.9793 56.6665C62.9573 56.6665 63.7502 55.8737 63.7502 54.8957V44.2707Z" fill="#02070D"/>
<path fill-rule="evenodd" clip-rule="evenodd" d="M42.5002 38.9582C36.6321 38.9582 31.8752 43.7151 31.8752 49.5832C31.8752 55.4512 36.6321 60.2082 42.5002 60.2082C48.3682 60.2082 53.1252 55.4512 53.1252 49.5832C53.1252 43.7151 48.3682 38.9582 42.5002 38.9582ZM35.4168 49.5832C35.4168 45.6712 38.5881 42.4998 42.5002 42.4998C46.4122 42.4998 49.5835 45.6712 49.5835 49.5832C49.5835 53.4952 46.4122 56.6665 42.5002 56.6665C38.5881 56.6665 35.4168 53.4952 35.4168 49.5832Z" fill="#02070D"/>
<path fill-rule="evenodd" clip-rule="evenodd" d="M7.0835 31.8748C7.0835 29.9188 8.66915 28.3332 10.6252 28.3332H74.3752C76.3312 28.3332 77.9168 29.9188 77.9168 31.8748V67.2915C77.9168 69.2475 76.3312 70.8332 74.3752 70.8332H10.6252C8.66916 70.8332 7.0835 69.2475 7.0835 67.2915V31.8748ZM15.6338 36.8835C14.3055 38.2119 12.5038 38.9582 10.6252 38.9582V31.8748H17.7085C17.7085 33.7535 16.9622 35.5551 15.6338 36.8835ZM18.1382 59.7785C16.1456 57.7859 13.4431 56.6665 10.6252 56.6665V42.4998C13.4431 42.4998 16.1456 41.3804 18.1382 39.3878C20.1308 37.3953 21.2502 34.6928 21.2502 31.8748H63.7502C63.7502 34.6928 64.8696 37.3953 66.8621 39.3878C68.8547 41.3804 71.5572 42.4998 74.3752 42.4998V56.6665C71.5572 56.6665 68.8547 57.7859 66.8621 59.7785C64.8696 61.7711 63.7502 64.4736 63.7502 67.2915H21.2502C21.2502 64.4736 20.1308 61.7711 18.1382 59.7785ZM69.3665 36.8835C68.0381 35.5551 67.2918 33.7535 67.2918 31.8748H74.3752V38.9582C72.4965 38.9582 70.6949 38.2119 69.3665 36.8835ZM69.3665 62.2828C70.6949 60.9545 72.4965 60.2082 74.3752 60.2082V67.2915H67.2918C67.2918 65.4129 68.0381 63.6112 69.3665 62.2828ZM15.6338 62.2828C16.9622 63.6112 17.7085 65.4129 17.7085 67.2915H10.6252V60.2082C12.5038 60.2082 14.3055 60.9545 15.6338 62.2828Z" fill="#02070D"/>
</svg>
