<svg width="105" height="105" viewBox="0 0 105 105" fill="none" xmlns="http://www.w3.org/2000/svg">
<path d="M39.375 61.25C41.7912 61.25 43.75 59.2913 43.75 56.875C43.75 54.4588 41.7912 52.5 39.375 52.5C36.9588 52.5 35 54.4588 35 56.875C35 59.2913 36.9588 61.25 39.375 61.25Z" fill="#02070D"/>
<path d="M39.375 74.375C41.7912 74.375 43.75 72.4163 43.75 70C43.75 67.5838 41.7912 65.625 39.375 65.625C36.9588 65.625 35 67.5838 35 70C35 72.4163 36.9588 74.375 39.375 74.375Z" fill="#02070D"/>
<path d="M43.75 83.125C43.75 85.5413 41.7912 87.5 39.375 87.5C36.9588 87.5 35 85.5413 35 83.125C35 80.7088 36.9588 78.75 39.375 78.75C41.7912 78.75 43.75 80.7088 43.75 83.125Z" fill="#02070D"/>
<path d="M61.25 87.5C63.6662 87.5 65.625 85.5413 65.625 83.125C65.625 80.7088 63.6662 78.75 61.25 78.75C58.8338 78.75 56.875 80.7088 56.875 83.125C56.875 85.5413 58.8338 87.5 61.25 87.5Z" fill="#02070D"/>
<path d="M50.3125 87.5C52.7287 87.5 54.6875 85.5413 54.6875 83.125C54.6875 80.7088 52.7287 78.75 50.3125 78.75C47.8963 78.75 45.9375 80.7088 45.9375 83.125C45.9375 85.5413 47.8963 87.5 50.3125 87.5Z" fill="#02070D"/>
<path d="M61.25 74.375C63.6662 74.375 65.625 72.4163 65.625 70C65.625 67.5838 63.6662 65.625 61.25 65.625C58.8338 65.625 56.875 67.5838 56.875 70C56.875 72.4163 58.8338 74.375 61.25 74.375Z" fill="#02070D"/>
<path d="M50.3125 74.375C52.7287 74.375 54.6875 72.4163 54.6875 70C54.6875 67.5838 52.7287 65.625 50.3125 65.625C47.8963 65.625 45.9375 67.5838 45.9375 70C45.9375 72.4163 47.8963 74.375 50.3125 74.375Z" fill="#02070D"/>
<path d="M65.625 56.875C65.625 59.2913 63.6662 61.25 61.25 61.25C58.8338 61.25 56.875 59.2913 56.875 56.875C56.875 54.4588 58.8338 52.5 61.25 52.5C63.6662 52.5 65.625 54.4588 65.625 56.875Z" fill="#02070D"/>
<path d="M54.6875 56.875C54.6875 59.2913 52.7287 61.25 50.3125 61.25C47.8963 61.25 45.9375 59.2913 45.9375 56.875C45.9375 54.4588 47.8963 52.5 50.3125 52.5C52.7287 52.5 54.6875 54.4588 54.6875 56.875Z" fill="#02070D"/>
<path fill-rule="evenodd" clip-rule="evenodd" d="M35 39.375C35 36.9588 36.9588 35 39.375 35H61.25C63.6662 35 65.625 36.9588 65.625 39.375V43.75C65.625 46.1663 63.6662 48.125 61.25 48.125H39.375C36.9588 48.125 35 46.1663 35 43.75V39.375ZM39.375 39.375V43.75H61.25V39.375H39.375Z" fill="#02070D"/>
<path fill-rule="evenodd" clip-rule="evenodd" d="M35.9084 13.5379C36.4789 13.1268 37.2122 13.0149 37.8792 13.2373L50.3125 17.3817L62.7458 13.2373C63.4128 13.0149 64.1461 13.1268 64.7166 13.5379C65.287 13.9491 65.625 14.6094 65.625 15.3125V26.25C70.4575 26.25 74.375 30.1675 74.375 35V87.5C74.375 92.3325 70.4575 96.25 65.625 96.25H35C30.1675 96.25 26.25 92.3325 26.25 87.5V35C26.25 30.1675 30.1675 26.25 35 26.25V15.3125C35 14.6094 35.338 13.9491 35.9084 13.5379ZM49.6208 21.7628L39.375 18.3475V26.25H61.25V18.3475L51.0042 21.7628C50.5552 21.9124 50.0698 21.9124 49.6208 21.7628ZM35 30.625C32.5838 30.625 30.625 32.5838 30.625 35V87.5C30.625 89.9163 32.5838 91.875 35 91.875H65.625C68.0412 91.875 70 89.9163 70 87.5V35C70 32.5838 68.0412 30.625 65.625 30.625H35Z" fill="#02070D"/>
<path d="M83.125 39.375C83.125 38.1669 82.1456 37.1875 80.9375 37.1875C79.7294 37.1875 78.75 38.1669 78.75 39.375V85.3125C78.75 86.5206 79.7294 87.5 80.9375 87.5C82.1456 87.5 83.125 86.5206 83.125 85.3125V39.375Z" fill="#02070D"/>
</svg>
