<svg id="svg" xmlns="http://www.w3.org/2000/svg" xmlns:xlink="http://www.w3.org/1999/xlink" width="400" height="400" viewBox="0, 0, 400,400"><g id="svgg"><path id="path0" d="M190.000 94.074 C 190.000 94.290,188.765 94.444,187.037 94.444 C 185.407 94.444,184.074 94.590,184.074 94.767 C 184.074 94.945,182.407 95.208,180.370 95.352 C 178.333 95.497,176.667 95.768,176.667 95.956 C 176.667 96.143,175.990 96.296,175.163 96.296 C 174.255 96.296,173.751 96.443,173.889 96.667 C 174.027 96.890,173.522 97.037,172.614 97.037 C 171.788 97.037,171.111 97.204,171.111 97.407 C 171.111 97.611,170.694 97.778,170.185 97.778 C 169.676 97.778,169.259 97.921,169.259 98.096 C 169.259 98.272,168.384 98.511,167.315 98.628 C 165.349 98.843,163.342 99.582,163.336 100.093 C 163.335 100.245,162.833 100.370,162.222 100.370 C 161.611 100.370,161.111 100.537,161.111 100.741 C 161.111 100.944,160.797 101.111,160.413 101.111 C 160.029 101.111,159.237 101.360,158.653 101.664 C 158.070 101.969,157.291 102.219,156.923 102.220 C 156.554 102.221,156.356 102.389,156.481 102.593 C 156.615 102.809,156.238 102.963,155.577 102.963 C 154.954 102.963,154.444 103.130,154.444 103.333 C 154.444 103.537,154.111 103.704,153.704 103.704 C 153.296 103.704,152.963 103.870,152.963 104.074 C 152.963 104.278,152.713 104.444,152.407 104.444 C 152.102 104.444,151.852 104.590,151.852 104.769 C 151.852 104.947,151.394 105.185,150.833 105.299 C 150.273 105.412,149.447 105.849,148.997 106.271 C 148.547 106.692,147.922 107.037,147.608 107.037 C 147.294 107.037,147.037 107.204,147.037 107.407 C 147.037 107.611,146.722 107.778,146.336 107.778 C 145.950 107.778,145.539 108.028,145.422 108.333 C 145.304 108.639,144.870 108.889,144.456 108.889 C 144.042 108.889,143.704 109.056,143.704 109.259 C 143.704 109.463,143.455 109.630,143.151 109.630 C 142.847 109.630,142.391 109.963,142.136 110.370 C 141.882 110.778,141.380 111.111,141.022 111.111 C 140.664 111.111,140.370 111.267,140.370 111.457 C 140.370 111.646,139.999 111.920,139.544 112.064 C 139.090 112.208,138.273 112.803,137.729 113.385 C 137.185 113.968,136.549 114.444,136.315 114.444 C 136.082 114.444,135.524 114.822,135.075 115.283 C 134.626 115.744,133.804 116.354,133.247 116.639 C 132.690 116.923,132.140 117.454,132.024 117.818 C 131.909 118.183,131.489 118.584,131.092 118.710 C 130.695 118.836,130.370 119.094,130.370 119.284 C 130.370 119.474,130.161 119.630,129.905 119.630 C 129.649 119.630,128.907 120.171,128.256 120.833 C 127.605 121.495,126.690 122.409,126.222 122.865 C 125.753 123.320,124.998 124.070,124.543 124.531 C 124.088 124.993,123.338 125.743,122.876 126.198 C 122.415 126.653,121.620 127.450,121.111 127.968 C 120.602 128.486,119.810 129.277,119.352 129.725 C 118.894 130.173,118.519 130.824,118.519 131.171 C 118.519 131.518,118.202 131.902,117.815 132.025 C 115.351 132.807,114.066 142.715,116.204 144.444 C 116.662 144.815,117.037 145.317,117.037 145.559 C 117.037 146.153,119.208 148.148,119.854 148.148 C 120.138 148.148,120.370 148.315,120.370 148.519 C 120.370 148.722,121.204 148.889,122.222 148.889 C 123.241 148.889,124.074 149.056,124.074 149.259 C 124.074 149.463,124.491 149.630,125.000 149.630 C 125.509 149.630,125.926 149.463,125.926 149.259 C 125.926 149.056,126.759 148.889,127.778 148.889 C 128.796 148.889,129.630 148.722,129.630 148.519 C 129.630 148.315,129.968 148.148,130.382 148.148 C 130.796 148.148,131.230 147.898,131.348 147.593 C 131.465 147.287,131.805 147.037,132.103 147.037 C 132.732 147.037,133.704 146.158,133.704 145.589 C 133.704 145.128,144.324 134.444,144.782 134.444 C 144.955 134.444,145.783 133.778,146.622 132.963 C 147.462 132.148,148.308 131.481,148.502 131.481 C 148.696 131.481,149.272 131.065,149.781 130.556 C 150.290 130.046,150.820 129.630,150.958 129.630 C 151.096 129.630,151.479 129.323,151.808 128.948 C 152.138 128.573,152.866 128.153,153.426 128.015 C 153.986 127.877,154.444 127.600,154.444 127.400 C 154.444 127.201,154.694 127.037,155.000 127.037 C 155.306 127.037,155.556 126.870,155.556 126.667 C 155.556 126.463,155.889 126.296,156.296 126.296 C 156.704 126.296,157.037 126.130,157.037 125.926 C 157.037 125.722,157.216 125.556,157.434 125.556 C 157.652 125.556,158.081 125.306,158.386 125.000 C 158.692 124.694,159.263 124.444,159.656 124.444 C 160.049 124.444,160.370 124.278,160.370 124.074 C 160.370 123.870,160.620 123.704,160.926 123.704 C 161.231 123.704,161.481 123.537,161.481 123.333 C 161.481 123.130,161.815 122.963,162.222 122.963 C 162.630 122.963,162.963 122.796,162.963 122.593 C 162.963 122.389,163.380 122.222,163.889 122.222 C 164.398 122.222,164.815 122.070,164.815 121.884 C 164.815 121.699,165.482 121.434,166.298 121.296 C 167.114 121.158,167.687 120.894,167.572 120.708 C 167.458 120.522,167.874 120.370,168.497 120.370 C 169.120 120.370,169.630 120.204,169.630 120.000 C 169.630 119.796,170.046 119.630,170.556 119.630 C 171.065 119.630,171.481 119.463,171.481 119.259 C 171.481 119.056,171.981 118.889,172.593 118.889 C 173.204 118.889,173.704 118.730,173.704 118.537 C 173.704 118.343,174.704 118.072,175.926 117.934 C 177.148 117.795,178.148 117.537,178.148 117.360 C 178.148 117.182,178.731 117.037,179.444 117.037 C 180.157 117.037,180.741 116.870,180.741 116.667 C 180.741 116.463,181.657 116.296,182.778 116.296 C 183.898 116.296,184.815 116.130,184.815 115.926 C 184.815 115.720,185.802 115.556,187.037 115.556 C 188.272 115.556,189.259 115.391,189.259 115.185 C 189.259 114.946,193.519 114.815,201.296 114.815 C 209.074 114.815,213.333 114.946,213.333 115.185 C 213.333 115.389,214.157 115.556,215.163 115.556 C 216.170 115.556,217.096 115.722,217.222 115.926 C 217.348 116.130,218.034 116.296,218.747 116.296 C 219.517 116.296,219.951 116.447,219.815 116.667 C 219.683 116.881,220.033 117.037,220.645 117.037 C 221.227 117.037,221.880 117.213,222.095 117.429 C 222.311 117.644,223.427 117.917,224.577 118.036 C 225.726 118.155,226.667 118.395,226.667 118.570 C 226.667 118.746,227.083 118.889,227.593 118.889 C 228.102 118.889,228.519 119.056,228.519 119.259 C 228.519 119.463,228.935 119.630,229.444 119.630 C 229.954 119.630,230.370 119.796,230.370 120.000 C 230.370 120.204,230.694 120.370,231.089 120.370 C 231.485 120.370,231.902 120.523,232.017 120.709 C 232.132 120.894,232.892 121.159,233.706 121.297 C 234.519 121.434,235.186 121.657,235.188 121.792 C 235.192 122.142,237.060 122.963,237.852 122.963 C 238.218 122.963,238.519 123.130,238.519 123.333 C 238.519 123.537,238.769 123.704,239.074 123.704 C 239.380 123.704,239.630 123.870,239.630 124.074 C 239.630 124.278,239.951 124.444,240.344 124.444 C 240.737 124.444,241.308 124.694,241.614 125.000 C 241.919 125.306,242.348 125.556,242.566 125.556 C 242.784 125.556,242.963 125.722,242.963 125.926 C 242.963 126.130,243.296 126.296,243.704 126.296 C 244.111 126.296,244.444 126.463,244.444 126.667 C 244.444 126.870,244.694 127.037,245.000 127.037 C 245.306 127.037,245.556 127.201,245.556 127.400 C 245.556 127.600,246.014 127.877,246.574 128.015 C 247.134 128.153,247.862 128.573,248.192 128.948 C 248.521 129.323,248.904 129.630,249.042 129.630 C 249.180 129.630,249.710 130.046,250.219 130.556 C 250.728 131.065,251.304 131.481,251.498 131.481 C 251.692 131.481,252.538 132.148,253.378 132.963 C 254.217 133.778,255.043 134.444,255.213 134.444 C 255.652 134.444,265.185 143.993,265.185 144.432 C 265.185 144.632,265.935 145.545,266.852 146.462 C 267.769 147.379,268.519 148.292,268.519 148.492 C 268.519 148.692,268.935 149.272,269.444 149.781 C 269.954 150.290,270.370 150.820,270.370 150.958 C 270.370 151.096,270.677 151.479,271.052 151.808 C 271.427 152.138,271.837 152.827,271.963 153.341 C 272.090 153.854,272.533 154.639,272.949 155.084 C 273.364 155.530,273.704 156.152,273.704 156.466 C 273.704 156.780,273.870 157.037,274.074 157.037 C 274.278 157.037,274.444 157.216,274.444 157.434 C 274.444 157.652,274.694 158.081,275.000 158.386 C 275.306 158.692,275.556 159.263,275.556 159.656 C 275.556 160.049,275.722 160.370,275.926 160.370 C 276.130 160.370,276.296 160.620,276.296 160.926 C 276.296 161.231,276.463 161.481,276.667 161.481 C 276.870 161.481,277.037 161.815,277.037 162.222 C 277.037 162.630,277.204 162.963,277.407 162.963 C 277.611 162.963,277.778 163.380,277.778 163.889 C 277.778 164.398,277.930 164.815,278.116 164.815 C 278.301 164.815,278.566 165.482,278.704 166.298 C 278.842 167.114,279.106 167.687,279.292 167.572 C 279.478 167.458,279.630 167.874,279.630 168.497 C 279.630 169.120,279.796 169.630,280.000 169.630 C 280.204 169.630,280.370 169.880,280.370 170.185 C 280.370 170.491,280.537 170.741,280.741 170.741 C 280.944 170.741,281.111 171.241,281.111 171.852 C 281.111 172.463,281.259 172.963,281.439 172.963 C 281.620 172.963,281.880 173.713,282.018 174.630 C 282.155 175.546,282.424 176.296,282.615 176.296 C 282.807 176.296,282.963 176.713,282.963 177.222 C 282.963 177.731,283.171 178.186,283.426 178.232 C 283.681 178.279,278.972 178.404,272.963 178.510 L 262.037 178.704 262.148 180.741 C 262.209 181.861,262.417 182.833,262.611 182.901 C 262.804 182.969,262.963 183.259,262.963 183.546 C 262.963 183.833,263.296 184.276,263.704 184.530 C 264.111 184.785,264.444 185.286,264.444 185.645 C 264.444 186.003,264.600 186.296,264.790 186.296 C 264.980 186.296,265.238 186.621,265.364 187.018 C 265.490 187.415,265.918 187.843,266.315 187.969 C 266.712 188.095,267.037 188.451,267.037 188.760 C 267.037 189.068,267.620 189.888,268.333 190.580 C 269.046 191.272,269.633 192.050,269.638 192.308 C 269.642 192.567,270.225 193.276,270.934 193.885 C 271.642 194.495,272.222 195.178,272.222 195.405 C 272.222 195.631,272.722 196.339,273.333 196.979 C 273.944 197.618,274.444 198.233,274.444 198.346 C 274.444 198.617,275.179 199.502,276.204 200.463 C 276.662 200.893,277.037 201.381,277.037 201.547 C 277.037 201.714,277.620 202.469,278.333 203.224 C 279.046 203.980,279.630 204.747,279.630 204.929 C 279.630 205.110,280.130 205.725,280.741 206.296 C 281.352 206.867,281.852 207.512,281.852 207.729 C 281.852 207.946,282.435 208.707,283.148 209.420 C 283.861 210.133,284.444 210.817,284.444 210.940 C 284.444 211.063,284.653 211.396,284.907 211.680 C 285.988 212.886,286.296 213.322,286.296 213.646 C 286.296 213.836,286.795 214.384,287.404 214.866 C 288.013 215.347,288.513 215.980,288.515 216.273 C 288.532 219.010,295.336 222.462,297.071 220.615 C 298.358 219.244,298.889 218.579,298.889 218.337 C 298.889 218.219,299.472 217.540,300.185 216.827 C 300.898 216.114,301.481 215.353,301.481 215.136 C 301.481 214.919,301.981 214.275,302.593 213.704 C 303.204 213.133,303.704 212.480,303.704 212.252 C 303.704 212.025,304.287 211.272,305.000 210.580 C 305.713 209.888,306.296 209.123,306.296 208.880 C 306.296 208.638,306.713 208.112,307.222 207.712 C 307.731 207.311,308.148 206.723,308.148 206.405 C 308.148 205.832,309.480 204.444,310.030 204.444 C 310.188 204.444,310.610 203.779,310.969 202.966 C 311.328 202.152,311.923 201.391,312.292 201.274 C 312.661 201.157,312.963 200.815,312.963 200.514 C 312.963 200.213,313.380 199.550,313.889 199.040 C 314.398 198.531,314.815 197.951,314.815 197.751 C 314.815 197.551,315.565 196.638,316.481 195.721 C 317.398 194.805,318.153 193.851,318.158 193.601 C 318.164 193.352,318.914 192.496,319.825 191.699 C 320.736 190.902,321.481 189.980,321.481 189.651 C 321.481 189.322,321.837 188.807,322.271 188.508 C 323.602 187.590,324.815 186.152,324.815 185.492 C 324.815 185.147,325.121 184.767,325.496 184.648 C 326.347 184.378,326.917 183.232,327.193 181.233 C 327.592 178.352,328.295 178.519,315.701 178.519 L 304.444 178.519 304.444 177.429 C 304.444 176.830,304.278 176.237,304.074 176.111 C 303.870 175.985,303.704 175.142,303.704 174.237 C 303.704 173.333,303.537 172.593,303.333 172.593 C 303.130 172.593,302.963 171.926,302.963 171.111 C 302.963 170.296,302.796 169.630,302.593 169.630 C 302.389 169.630,302.222 169.213,302.222 168.704 C 302.222 168.194,302.078 167.778,301.902 167.778 C 301.726 167.778,301.483 167.069,301.361 166.204 C 301.123 164.504,300.356 162.600,299.907 162.595 C 299.755 162.594,299.630 162.093,299.630 161.481 C 299.630 160.870,299.463 160.370,299.259 160.370 C 299.056 160.370,298.889 160.120,298.889 159.815 C 298.889 159.509,298.722 159.259,298.519 159.259 C 298.315 159.259,298.148 158.844,298.148 158.336 C 298.148 157.281,297.005 154.444,296.579 154.444 C 296.424 154.444,296.296 154.111,296.296 153.704 C 296.296 153.296,296.130 152.963,295.926 152.963 C 295.722 152.963,295.556 152.713,295.556 152.407 C 295.556 152.102,295.410 151.852,295.231 151.852 C 295.053 151.852,294.815 151.394,294.701 150.833 C 294.588 150.273,294.151 149.447,293.729 148.997 C 293.308 148.547,292.963 147.922,292.963 147.608 C 292.963 147.294,292.796 147.037,292.593 147.037 C 292.389 147.037,292.222 146.722,292.222 146.336 C 292.222 145.950,291.972 145.539,291.667 145.422 C 291.361 145.304,291.111 144.870,291.111 144.456 C 291.111 144.042,290.944 143.704,290.741 143.704 C 290.537 143.704,290.370 143.455,290.370 143.151 C 290.370 142.847,290.037 142.391,289.630 142.136 C 289.222 141.882,288.889 141.457,288.889 141.192 C 288.889 140.740,288.631 140.349,287.500 139.088 C 287.245 138.804,287.037 138.460,287.037 138.323 C 287.037 138.187,286.537 137.608,285.926 137.037 C 285.315 136.466,284.815 135.824,284.815 135.609 C 284.815 135.394,284.398 134.802,283.889 134.293 C 283.380 133.784,282.963 133.240,282.963 133.085 C 282.963 132.931,282.635 132.465,282.233 132.050 C 279.781 129.516,278.889 128.514,278.889 128.293 C 278.889 127.967,272.033 121.111,271.707 121.111 C 271.486 121.111,270.484 120.219,267.950 117.767 C 267.535 117.365,267.069 117.037,266.915 117.037 C 266.760 117.037,266.216 116.620,265.707 116.111 C 265.198 115.602,264.606 115.185,264.391 115.185 C 264.176 115.185,263.534 114.685,262.963 114.074 C 262.392 113.463,261.762 112.963,261.563 112.963 C 261.365 112.963,260.994 112.713,260.741 112.407 C 260.487 112.102,260.004 111.852,259.666 111.852 C 259.329 111.852,258.812 111.519,258.519 111.111 C 258.225 110.704,257.771 110.370,257.511 110.370 C 257.250 110.370,257.037 110.204,257.037 110.000 C 257.037 109.796,256.704 109.630,256.296 109.630 C 255.889 109.630,255.556 109.466,255.556 109.266 C 255.556 109.066,255.139 108.798,254.630 108.671 C 254.120 108.543,253.704 108.290,253.704 108.108 C 253.704 107.926,253.370 107.778,252.963 107.778 C 252.556 107.778,252.222 107.611,252.222 107.407 C 252.222 107.204,251.972 107.037,251.667 107.037 C 251.361 107.037,251.111 106.870,251.111 106.667 C 251.111 106.463,250.778 106.296,250.370 106.296 C 249.963 106.296,249.630 106.148,249.630 105.967 C 249.630 105.786,249.046 105.529,248.333 105.395 C 247.620 105.261,247.037 104.993,247.037 104.798 C 247.037 104.604,246.704 104.444,246.296 104.444 C 245.889 104.444,245.556 104.278,245.556 104.074 C 245.556 103.870,245.306 103.704,245.000 103.704 C 244.694 103.704,244.444 103.537,244.444 103.333 C 244.444 103.130,244.121 102.963,243.726 102.963 C 243.330 102.963,242.917 102.818,242.808 102.641 C 242.698 102.464,241.939 102.212,241.119 102.081 C 240.300 101.950,239.630 101.678,239.630 101.477 C 239.630 101.276,239.130 101.111,238.519 101.111 C 237.907 101.111,237.406 100.986,237.405 100.833 C 237.401 100.458,235.569 99.630,234.741 99.630 C 234.374 99.630,234.074 99.471,234.074 99.278 C 234.074 99.084,233.074 98.813,231.852 98.674 C 230.630 98.536,229.630 98.278,229.630 98.100 C 229.630 97.923,229.120 97.778,228.497 97.778 C 227.836 97.778,227.459 97.623,227.593 97.407 C 227.731 97.184,227.226 97.037,226.318 97.037 C 225.491 97.037,224.815 96.870,224.815 96.667 C 224.815 96.463,224.265 96.296,223.593 96.296 C 222.920 96.296,222.207 96.133,222.007 95.933 C 221.807 95.733,219.941 95.458,217.859 95.322 C 215.777 95.185,214.074 94.932,214.074 94.759 C 214.074 94.586,212.741 94.444,211.111 94.444 C 209.383 94.444,208.148 94.290,208.148 94.074 C 208.148 93.837,204.877 93.704,199.074 93.704 C 193.272 93.704,190.000 93.837,190.000 94.074 M192.685 131.665 C 192.360 132.034,192.222 133.796,192.222 137.577 L 192.222 142.963 191.111 142.963 C 190.500 142.963,190.000 143.130,190.000 143.333 C 190.000 143.537,189.167 143.704,188.148 143.704 C 187.130 143.704,186.296 143.870,186.296 144.074 C 186.296 144.278,185.880 144.444,185.370 144.444 C 184.861 144.444,184.444 144.593,184.444 144.774 C 184.444 144.955,183.861 145.212,183.148 145.346 C 182.435 145.480,181.852 145.748,181.852 145.943 C 181.852 146.137,181.555 146.296,181.193 146.296 C 180.830 146.296,180.294 146.630,180.000 147.037 C 179.706 147.444,179.253 147.778,178.992 147.778 C 178.732 147.778,178.519 147.912,178.519 148.077 C 178.519 148.241,177.860 148.666,177.056 149.021 C 176.252 149.376,175.502 149.954,175.391 150.306 C 175.279 150.658,174.831 151.191,174.395 151.491 C 172.999 152.452,171.111 154.566,171.111 155.170 C 171.111 155.382,170.973 155.556,170.803 155.556 C 170.634 155.556,170.259 156.014,169.970 156.574 C 169.681 157.134,169.236 157.813,168.981 158.082 C 168.727 158.351,168.519 158.810,168.519 159.101 C 168.519 159.392,168.352 159.630,168.148 159.630 C 167.944 159.630,167.778 159.963,167.778 160.370 C 167.778 160.778,167.611 161.111,167.407 161.111 C 167.204 161.111,167.037 161.518,167.037 162.015 C 167.037 162.512,166.870 163.022,166.667 163.148 C 166.463 163.274,166.296 163.770,166.296 164.250 C 166.296 164.731,166.088 165.193,165.833 165.278 C 165.480 165.396,165.370 167.601,165.370 174.630 C 165.370 181.659,165.480 183.864,165.833 183.982 C 166.088 184.066,166.296 184.622,166.296 185.216 C 166.296 185.810,166.463 186.296,166.667 186.296 C 166.870 186.296,167.037 186.713,167.037 187.222 C 167.037 187.731,167.204 188.148,167.407 188.148 C 167.611 188.148,167.778 188.481,167.778 188.889 C 167.778 189.296,167.944 189.630,168.148 189.630 C 168.352 189.630,168.519 189.968,168.519 190.382 C 168.519 190.796,168.769 191.230,169.074 191.348 C 169.380 191.465,169.630 191.839,169.630 192.180 C 169.630 192.521,169.963 193.040,170.370 193.333 C 170.778 193.627,171.111 194.004,171.111 194.171 C 171.111 194.550,171.669 195.231,173.333 196.883 C 175.791 199.324,176.138 199.630,176.451 199.630 C 176.624 199.630,177.035 199.939,177.364 200.317 C 177.693 200.696,178.338 201.124,178.796 201.268 C 179.255 201.413,179.630 201.687,179.630 201.877 C 179.630 202.067,179.902 202.222,180.234 202.222 C 180.567 202.222,181.111 202.536,181.443 202.918 C 181.775 203.301,182.878 203.893,183.894 204.234 C 186.509 205.110,187.778 205.692,187.778 206.016 C 187.778 206.170,188.194 206.296,188.704 206.296 C 189.213 206.296,189.630 206.463,189.630 206.667 C 189.630 206.870,189.963 207.037,190.370 207.037 C 190.778 207.037,191.111 207.182,191.111 207.359 C 191.111 207.536,191.816 207.775,192.677 207.890 C 193.539 208.006,194.302 208.278,194.375 208.495 C 194.447 208.711,194.992 208.889,195.586 208.889 C 196.181 208.889,196.667 209.056,196.667 209.259 C 196.667 209.463,196.917 209.630,197.222 209.630 C 197.528 209.630,197.778 209.796,197.778 210.000 C 197.778 210.204,198.185 210.370,198.682 210.370 C 199.179 210.370,199.675 210.515,199.785 210.692 C 199.894 210.869,200.654 211.121,201.473 211.252 C 202.293 211.383,202.963 211.655,202.963 211.856 C 202.963 212.058,203.463 212.222,204.074 212.222 C 204.685 212.222,205.185 212.389,205.185 212.593 C 205.185 212.796,205.435 212.963,205.741 212.963 C 206.046 212.963,206.296 213.130,206.296 213.333 C 206.296 213.537,206.630 213.704,207.037 213.704 C 207.444 213.704,207.778 213.859,207.778 214.049 C 207.778 214.239,208.145 214.511,208.595 214.654 C 209.607 214.975,212.222 217.650,212.222 218.364 C 212.222 218.652,212.389 218.889,212.593 218.889 C 213.055 218.889,213.095 225.060,212.635 225.344 C 212.454 225.456,212.190 226.169,212.047 226.928 C 211.905 227.687,211.469 228.532,211.079 228.805 C 210.689 229.078,210.370 229.470,210.370 229.677 C 210.370 230.092,209.449 231.111,209.074 231.111 C 208.943 231.111,208.586 231.361,208.280 231.667 C 207.975 231.972,207.403 232.222,207.011 232.222 C 206.618 232.222,206.296 232.389,206.296 232.593 C 206.296 232.798,205.309 232.963,204.074 232.963 C 202.840 232.963,201.852 233.128,201.852 233.333 C 201.852 233.537,201.102 233.704,200.185 233.704 C 199.269 233.704,198.519 233.537,198.519 233.333 C 198.519 233.130,197.695 232.963,196.689 232.963 C 195.682 232.963,194.767 232.815,194.656 232.635 C 194.544 232.454,193.831 232.190,193.072 232.047 C 192.313 231.905,191.468 231.469,191.195 231.079 C 190.922 230.689,190.540 230.370,190.346 230.370 C 189.825 230.370,188.026 228.486,187.430 227.315 C 187.145 226.755,186.773 226.296,186.604 226.296 C 186.435 226.296,186.296 226.046,186.296 225.741 C 186.296 225.435,186.130 225.185,185.926 225.185 C 185.722 225.185,185.556 224.852,185.556 224.444 C 185.556 224.037,185.401 223.704,185.212 223.704 C 185.023 223.704,184.753 222.785,184.613 221.662 C 184.473 220.539,184.211 219.529,184.031 219.418 C 183.851 219.307,183.704 218.963,183.704 218.655 C 183.704 217.561,182.692 217.037,180.582 217.037 C 179.447 217.037,178.519 217.204,178.519 217.407 C 178.519 217.611,177.842 217.778,177.015 217.778 C 176.188 217.778,175.600 217.921,175.709 218.096 C 175.817 218.272,174.869 218.523,173.601 218.656 C 172.333 218.788,171.241 219.061,171.173 219.263 C 171.105 219.465,170.647 219.630,170.154 219.630 C 169.662 219.630,169.259 219.796,169.259 220.000 C 169.259 220.204,168.676 220.370,167.963 220.370 C 167.250 220.370,166.667 220.537,166.667 220.741 C 166.667 220.944,166.093 221.111,165.392 221.111 C 164.691 221.111,164.015 221.278,163.889 221.481 C 163.763 221.685,163.354 221.852,162.981 221.852 C 162.607 221.852,162.200 222.115,162.077 222.437 C 161.767 223.246,162.255 228.148,162.646 228.148 C 162.820 228.148,162.963 228.615,162.963 229.185 C 162.963 230.311,163.718 232.215,164.167 232.219 C 164.319 232.221,164.444 232.732,164.444 233.355 C 164.444 234.016,164.599 234.393,164.815 234.259 C 165.019 234.133,165.185 234.307,165.185 234.644 C 165.185 235.530,166.331 237.862,167.111 238.562 C 167.478 238.891,167.778 239.358,167.778 239.600 C 167.778 240.225,173.942 246.296,174.578 246.296 C 174.868 246.296,175.205 246.554,175.326 246.869 C 175.447 247.185,176.048 247.618,176.662 247.832 C 177.276 248.046,177.778 248.371,177.778 248.555 C 177.778 248.739,178.111 248.889,178.519 248.889 C 178.926 248.889,179.259 249.015,179.259 249.169 C 179.259 249.323,179.801 249.684,180.463 249.973 C 181.125 250.261,181.768 250.647,181.891 250.832 C 182.014 251.016,182.806 251.260,183.650 251.373 C 184.494 251.486,185.185 251.724,185.185 251.901 C 185.185 252.078,185.592 252.222,186.089 252.222 C 186.586 252.222,187.096 252.389,187.222 252.593 C 187.348 252.796,188.525 252.963,189.837 252.963 L 192.222 252.963 192.222 260.026 C 192.222 265.654,192.330 267.197,192.751 267.619 C 193.414 268.281,206.296 268.411,206.296 267.756 C 206.296 267.540,206.463 267.467,206.667 267.593 C 206.909 267.742,207.037 265.251,207.037 260.392 L 207.037 252.963 208.889 252.963 C 209.907 252.963,210.741 252.796,210.741 252.593 C 210.741 252.389,211.491 252.222,212.407 252.222 C 213.324 252.222,214.074 252.075,214.074 251.895 C 214.074 251.714,214.991 251.452,216.111 251.312 C 217.231 251.172,218.148 250.903,218.148 250.714 C 218.148 250.525,218.484 250.370,218.894 250.370 C 219.750 250.370,221.035 249.712,221.848 248.856 C 222.156 248.532,222.843 248.159,223.375 248.028 C 223.908 247.896,225.033 247.120,225.876 246.302 C 226.719 245.484,227.557 244.815,227.739 244.815 C 228.237 244.815,230.370 242.728,230.370 242.241 C 230.370 242.008,230.787 241.430,231.296 240.958 C 231.806 240.486,232.222 239.864,232.222 239.576 C 232.222 239.288,232.556 238.812,232.963 238.519 C 233.370 238.225,233.704 237.771,233.704 237.511 C 233.704 237.250,233.856 237.037,234.042 237.037 C 234.227 237.037,234.492 236.370,234.630 235.556 C 234.767 234.741,235.032 234.074,235.218 234.074 C 235.404 234.074,235.556 233.824,235.556 233.519 C 235.556 233.213,235.722 232.963,235.926 232.963 C 236.130 232.963,236.296 232.630,236.296 232.222 C 236.296 231.815,236.463 231.481,236.667 231.481 C 236.870 231.481,237.037 231.079,237.037 230.586 C 237.037 230.094,237.198 229.636,237.395 229.568 C 237.591 229.500,237.866 227.814,238.006 225.821 C 238.145 223.828,238.401 222.110,238.574 222.003 C 238.986 221.748,238.985 217.407,238.572 217.407 C 238.398 217.407,238.163 215.722,238.049 213.662 C 237.936 211.602,237.662 209.736,237.440 209.514 C 237.218 209.292,237.037 208.827,237.037 208.479 C 237.037 207.865,235.603 204.816,235.139 204.444 C 235.012 204.343,234.790 203.718,234.647 203.056 C 234.503 202.394,234.232 201.852,234.045 201.852 C 233.857 201.852,233.704 201.519,233.704 201.111 C 233.704 200.704,233.537 200.370,233.333 200.370 C 233.130 200.370,232.963 200.168,232.963 199.920 C 232.963 199.475,232.722 199.190,230.216 196.667 C 228.489 194.927,227.882 194.444,227.423 194.444 C 227.211 194.444,227.037 194.278,227.037 194.074 C 227.037 193.870,226.704 193.704,226.296 193.704 C 225.889 193.704,225.556 193.537,225.556 193.333 C 225.556 193.130,225.212 192.963,224.793 192.963 C 224.374 192.963,224.124 192.811,224.239 192.625 C 224.354 192.440,223.780 192.175,222.965 192.037 C 222.149 191.899,221.481 191.635,221.481 191.449 C 221.481 191.263,221.231 191.111,220.926 191.111 C 220.620 191.111,220.370 190.944,220.370 190.741 C 220.370 190.537,219.870 190.370,219.259 190.370 C 218.648 190.370,218.148 190.243,218.148 190.087 C 218.148 189.662,215.312 188.519,214.257 188.519 C 213.749 188.519,213.333 188.352,213.333 188.148 C 213.333 187.944,213.083 187.778,212.778 187.778 C 212.472 187.778,212.222 187.611,212.222 187.407 C 212.222 187.204,211.806 187.037,211.296 187.037 C 210.787 187.037,210.370 186.870,210.370 186.667 C 210.370 186.463,209.884 186.296,209.290 186.296 C 208.696 186.296,208.153 186.126,208.084 185.917 C 208.014 185.709,207.292 185.433,206.479 185.304 C 205.665 185.176,204.917 184.971,204.815 184.850 C 204.401 184.357,202.926 183.704,202.227 183.704 C 201.817 183.704,201.481 183.576,201.481 183.421 C 201.481 183.053,198.707 181.852,197.857 181.852 C 197.496 181.852,196.960 181.519,196.667 181.111 C 196.373 180.704,195.836 180.370,195.474 180.370 C 195.111 180.370,194.815 180.240,194.815 180.080 C 194.815 179.920,194.273 179.474,193.611 179.088 C 192.179 178.253,191.111 177.116,191.111 176.425 C 191.111 176.150,190.944 175.926,190.741 175.926 C 190.515 175.926,190.370 174.259,190.370 171.667 C 190.370 169.074,190.515 167.407,190.741 167.407 C 190.944 167.407,191.111 167.165,191.111 166.869 C 191.111 166.148,193.674 163.704,194.429 163.704 C 194.641 163.704,194.815 163.537,194.815 163.333 C 194.815 163.130,195.148 162.963,195.556 162.963 C 195.963 162.963,196.296 162.796,196.296 162.593 C 196.296 162.389,196.963 162.222,197.778 162.222 C 198.593 162.222,199.259 162.056,199.259 161.852 C 199.259 161.648,199.769 161.481,200.392 161.481 C 201.053 161.481,201.430 161.636,201.296 161.852 C 201.156 162.078,201.725 162.222,202.756 162.222 C 203.685 162.222,204.444 162.389,204.444 162.593 C 204.444 162.796,204.694 162.963,205.000 162.963 C 205.306 162.963,205.556 163.104,205.556 163.277 C 205.556 163.450,206.222 163.892,207.037 164.259 C 207.852 164.627,208.519 165.063,208.519 165.229 C 208.519 165.395,209.102 166.114,209.815 166.827 C 210.528 167.540,211.111 168.296,211.111 168.506 C 211.111 168.717,211.253 168.889,211.426 168.889 C 211.599 168.889,212.050 169.639,212.428 170.556 C 212.806 171.472,213.247 172.222,213.409 172.222 C 213.571 172.222,213.704 172.556,213.704 172.963 C 213.704 173.370,213.870 173.704,214.074 173.704 C 214.278 173.704,214.444 173.878,214.444 174.091 C 214.444 175.492,218.020 177.033,218.704 175.926 C 218.830 175.722,219.433 175.556,220.044 175.556 C 220.655 175.556,221.061 175.404,220.946 175.218 C 220.831 175.032,221.404 174.768,222.219 174.630 C 223.033 174.493,223.794 174.228,223.909 174.042 C 224.024 173.856,224.441 173.704,224.837 173.704 C 225.232 173.704,225.556 173.537,225.556 173.333 C 225.556 173.130,225.889 172.963,226.296 172.963 C 226.704 172.963,227.037 172.796,227.037 172.593 C 227.037 172.389,227.454 172.222,227.963 172.222 C 228.472 172.222,228.889 172.074,228.889 171.893 C 228.889 171.712,229.472 171.454,230.185 171.321 C 230.898 171.187,231.481 170.918,231.481 170.724 C 231.481 170.529,231.867 170.370,232.338 170.370 C 234.171 170.370,234.933 169.045,234.660 166.332 C 234.414 163.888,233.770 161.852,233.243 161.852 C 233.089 161.852,232.963 161.519,232.963 161.111 C 232.963 160.704,232.816 160.370,232.636 160.370 C 232.456 160.370,232.208 160.079,232.085 159.722 C 231.719 158.657,230.342 156.544,229.591 155.892 C 229.205 155.557,228.889 155.171,228.889 155.034 C 228.889 154.727,228.239 153.928,227.112 152.851 C 226.644 152.403,225.728 151.495,225.077 150.833 C 224.426 150.171,223.756 149.630,223.587 149.630 C 223.418 149.630,223.048 149.421,222.764 149.167 C 221.539 148.068,221.120 147.778,220.756 147.778 C 220.544 147.778,220.370 147.611,220.370 147.407 C 220.370 147.204,220.037 147.037,219.630 147.037 C 219.222 147.037,218.889 146.870,218.889 146.667 C 218.889 146.463,218.569 146.296,218.179 146.296 C 217.789 146.296,217.410 146.119,217.338 145.902 C 217.265 145.685,216.502 145.413,215.640 145.298 C 214.779 145.182,214.074 144.943,214.074 144.766 C 214.074 144.589,213.667 144.444,213.170 144.444 C 212.673 144.444,212.163 144.278,212.037 144.074 C 211.911 143.870,211.151 143.704,210.349 143.704 C 209.546 143.704,208.889 143.537,208.889 143.333 C 208.889 143.130,208.639 142.963,208.333 142.963 C 207.865 142.963,207.778 142.116,207.778 137.566 C 207.778 133.383,207.659 132.050,207.249 131.640 C 206.478 130.870,193.366 130.892,192.685 131.665 M102.836 179.420 C 102.295 179.961,101.852 180.730,101.852 181.128 C 101.852 181.526,101.687 181.852,101.485 181.852 C 100.993 181.852,98.889 184.076,98.889 184.595 C 98.889 184.822,98.309 185.505,97.601 186.115 C 96.892 186.724,96.309 187.433,96.304 187.692 C 96.300 187.950,95.713 188.728,95.000 189.420 C 94.287 190.112,93.704 190.877,93.704 191.120 C 93.704 191.362,93.287 191.888,92.778 192.288 C 92.269 192.689,91.852 193.277,91.852 193.595 C 91.852 194.168,90.520 195.556,89.970 195.556 C 89.812 195.556,89.390 196.221,89.031 197.034 C 88.672 197.848,88.103 198.600,87.767 198.707 C 87.431 198.814,86.921 199.357,86.633 199.914 C 86.346 200.470,85.569 201.493,84.907 202.186 C 84.245 202.880,83.704 203.632,83.704 203.858 C 83.704 204.084,83.287 204.582,82.778 204.964 C 82.269 205.346,81.848 205.928,81.843 206.256 C 81.839 206.584,81.172 207.425,80.362 208.126 C 79.552 208.827,78.889 209.624,78.889 209.897 C 78.889 210.170,78.306 210.929,77.593 211.583 C 76.880 212.237,76.296 212.906,76.296 213.069 C 76.296 213.426,75.662 214.222,74.537 215.278 C 74.079 215.708,73.704 216.208,73.704 216.390 C 73.704 216.571,73.435 216.988,73.107 217.316 C 72.659 217.765,72.566 218.316,72.733 219.534 C 73.113 222.308,72.729 222.222,84.696 222.225 L 95.370 222.228 95.833 223.225 C 96.088 223.773,96.296 224.605,96.296 225.074 C 96.296 225.542,96.463 225.926,96.667 225.926 C 96.870 225.926,97.037 226.676,97.037 227.593 C 97.037 228.509,97.204 229.259,97.407 229.259 C 97.611 229.259,97.778 229.926,97.778 230.741 C 97.778 231.556,97.923 232.222,98.101 232.222 C 98.278 232.222,98.535 232.931,98.671 233.796 C 98.951 235.575,99.671 237.407,100.090 237.407 C 100.244 237.407,100.370 237.907,100.370 238.519 C 100.370 239.130,100.537 239.630,100.741 239.630 C 100.944 239.630,101.111 239.973,101.111 240.392 C 101.111 240.812,101.263 241.061,101.449 240.946 C 101.634 240.831,101.899 241.406,102.037 242.222 C 102.175 243.039,102.440 243.613,102.625 243.498 C 102.811 243.383,102.963 243.799,102.963 244.423 C 102.963 245.046,103.099 245.556,103.264 245.556 C 103.430 245.556,103.794 246.139,104.074 246.852 C 104.354 247.565,104.718 248.148,104.884 248.148 C 105.050 248.148,105.185 248.470,105.185 248.862 C 105.185 249.255,105.435 249.827,105.741 250.132 C 106.046 250.438,106.296 250.866,106.296 251.085 C 106.296 251.303,106.463 251.481,106.667 251.481 C 106.870 251.481,107.037 251.815,107.037 252.222 C 107.037 252.630,107.204 252.963,107.407 252.963 C 107.611 252.963,107.778 253.296,107.778 253.704 C 107.778 254.111,107.926 254.444,108.108 254.444 C 108.290 254.444,108.543 254.861,108.671 255.370 C 108.798 255.880,109.066 256.296,109.266 256.296 C 109.466 256.296,109.630 256.545,109.630 256.849 C 109.630 257.153,109.963 257.609,110.370 257.864 C 110.778 258.118,111.111 258.620,111.111 258.978 C 111.111 259.336,111.267 259.630,111.457 259.630 C 111.646 259.630,111.920 260.005,112.065 260.463 C 112.210 260.921,112.638 261.566,113.016 261.895 C 113.394 262.225,113.704 262.658,113.704 262.857 C 113.704 263.056,114.287 263.820,115.000 264.554 C 115.713 265.289,116.296 266.111,116.296 266.381 C 116.296 266.652,116.650 267.119,117.082 267.418 C 118.195 268.189,119.630 269.767,119.630 270.220 C 119.630 270.547,126.119 277.037,126.447 277.037 C 126.722 277.037,127.562 277.690,128.258 278.446 C 130.079 280.422,132.056 282.222,132.404 282.222 C 132.521 282.222,133.201 282.806,133.914 283.519 C 134.627 284.231,135.387 284.815,135.604 284.815 C 135.822 284.815,136.466 285.315,137.037 285.926 C 137.608 286.537,138.238 287.037,138.437 287.037 C 138.635 287.037,139.006 287.287,139.259 287.593 C 139.513 287.898,139.966 288.148,140.267 288.148 C 140.568 288.148,141.256 288.614,141.796 289.183 C 142.336 289.752,143.419 290.543,144.202 290.942 C 144.986 291.341,145.944 291.831,146.332 292.032 C 146.720 292.233,147.037 292.525,147.037 292.680 C 147.037 292.836,147.294 292.963,147.608 292.963 C 147.922 292.963,148.547 293.308,148.997 293.729 C 149.447 294.151,150.273 294.588,150.833 294.701 C 151.394 294.815,151.852 295.053,151.852 295.231 C 151.852 295.410,152.102 295.556,152.407 295.556 C 152.713 295.556,152.963 295.722,152.963 295.926 C 152.963 296.130,153.296 296.296,153.704 296.296 C 154.111 296.296,154.444 296.424,154.444 296.579 C 154.444 297.005,157.281 298.148,158.336 298.148 C 158.844 298.148,159.259 298.315,159.259 298.519 C 159.259 298.722,159.509 298.889,159.815 298.889 C 160.120 298.889,160.370 299.056,160.370 299.259 C 160.370 299.463,160.704 299.630,161.111 299.630 C 161.519 299.630,161.852 299.796,161.852 300.000 C 161.852 300.204,162.259 300.370,162.756 300.370 C 163.253 300.370,163.760 300.532,163.882 300.730 C 164.004 300.928,164.931 301.199,165.941 301.333 C 166.951 301.467,167.778 301.722,167.778 301.900 C 167.778 302.077,168.288 302.222,168.911 302.222 C 169.572 302.222,169.948 302.377,169.815 302.593 C 169.677 302.816,170.181 302.963,171.089 302.963 C 171.916 302.963,172.593 303.130,172.593 303.333 C 172.593 303.537,172.999 303.704,173.497 303.704 C 173.994 303.704,174.495 303.855,174.609 304.041 C 174.724 304.226,176.236 304.496,177.970 304.641 C 179.704 304.785,181.213 305.050,181.324 305.229 C 181.435 305.409,182.335 305.556,183.324 305.556 C 184.434 305.556,185.183 305.733,185.278 306.019 C 185.398 306.378,188.675 306.481,200.000 306.481 C 211.325 306.481,214.602 306.378,214.722 306.019 C 214.820 305.724,215.607 305.556,216.883 305.556 C 217.986 305.556,218.889 305.406,218.889 305.223 C 218.889 305.040,220.056 304.773,221.481 304.630 C 222.907 304.486,224.074 304.220,224.074 304.036 C 224.074 303.853,224.751 303.704,225.577 303.704 C 226.485 303.704,226.990 303.557,226.852 303.333 C 226.714 303.110,227.218 302.963,228.126 302.963 C 228.953 302.963,229.630 302.796,229.630 302.593 C 229.630 302.389,230.046 302.222,230.556 302.222 C 231.065 302.222,231.481 302.068,231.481 301.879 C 231.481 301.689,232.398 301.420,233.519 301.280 C 234.639 301.140,235.556 300.878,235.556 300.698 C 235.556 300.518,235.972 300.370,236.481 300.370 C 236.991 300.370,237.407 300.204,237.407 300.000 C 237.407 299.796,237.907 299.630,238.519 299.630 C 239.130 299.630,239.630 299.463,239.630 299.259 C 239.630 299.056,239.963 298.889,240.370 298.889 C 240.778 298.889,241.111 298.735,241.111 298.548 C 241.111 298.360,241.653 298.096,242.315 297.961 C 243.893 297.639,245.556 296.929,245.556 296.576 C 245.556 296.422,245.889 296.296,246.296 296.296 C 246.704 296.296,247.037 296.130,247.037 295.926 C 247.037 295.722,247.287 295.556,247.593 295.556 C 247.898 295.556,248.148 295.389,248.148 295.185 C 248.148 294.981,248.415 294.815,248.740 294.815 C 249.608 294.815,251.944 293.660,252.636 292.889 C 252.965 292.522,253.507 292.222,253.840 292.222 C 254.172 292.222,254.444 292.074,254.444 291.892 C 254.444 291.710,254.861 291.457,255.370 291.329 C 255.880 291.202,256.296 290.934,256.296 290.734 C 256.296 290.534,256.630 290.370,257.037 290.370 C 257.444 290.370,257.778 290.204,257.778 290.000 C 257.778 289.796,257.952 289.630,258.165 289.630 C 258.378 289.630,258.969 289.213,259.478 288.704 C 259.987 288.194,260.610 287.778,260.861 287.778 C 261.112 287.778,261.558 287.444,261.852 287.037 C 262.145 286.630,262.643 286.296,262.957 286.296 C 263.271 286.296,263.841 285.880,264.223 285.370 C 264.606 284.861,265.121 284.444,265.367 284.444 C 265.900 284.444,268.148 282.366,268.148 281.874 C 268.148 281.685,268.513 281.416,268.959 281.274 C 270.108 280.910,278.141 272.912,278.145 272.130 C 278.147 271.773,278.309 271.481,278.506 271.481 C 279.052 271.481,282.222 268.089,282.222 267.505 C 282.222 267.337,282.556 266.960,282.963 266.667 C 283.370 266.373,283.704 265.850,283.704 265.505 C 283.704 265.159,283.912 264.807,284.167 264.722 C 284.500 264.611,284.630 263.422,284.630 260.486 L 284.630 256.404 282.563 254.336 C 281.427 253.199,280.010 252.149,279.415 252.003 C 278.820 251.857,278.250 251.638,278.148 251.517 C 277.276 250.478,271.852 249.809,271.852 250.741 C 271.852 250.944,271.519 251.111,271.111 251.111 C 270.704 251.111,270.370 251.278,270.370 251.481 C 270.370 251.685,270.109 251.852,269.789 251.852 C 269.196 251.852,262.222 258.624,262.222 259.200 C 262.222 259.710,260.880 261.111,260.391 261.111 C 260.144 261.111,258.625 262.444,257.015 264.074 C 255.405 265.704,253.871 267.037,253.607 267.037 C 253.343 267.037,252.881 267.381,252.582 267.801 C 252.282 268.221,251.495 268.823,250.833 269.139 C 250.171 269.455,249.630 269.862,249.630 270.042 C 249.630 270.223,249.441 270.370,249.210 270.370 C 248.979 270.370,248.521 270.677,248.192 271.052 C 247.862 271.427,247.134 271.847,246.574 271.985 C 246.014 272.123,245.556 272.400,245.556 272.600 C 245.556 272.799,245.306 272.963,245.000 272.963 C 244.694 272.963,244.444 273.130,244.444 273.333 C 244.444 273.537,244.226 273.704,243.959 273.704 C 243.692 273.704,243.111 274.041,242.669 274.452 C 242.228 274.864,241.363 275.302,240.748 275.425 C 240.133 275.548,239.630 275.794,239.630 275.972 C 239.630 276.150,239.380 276.296,239.074 276.296 C 238.769 276.296,238.519 276.463,238.519 276.667 C 238.519 276.870,238.185 277.037,237.778 277.037 C 237.370 277.037,237.037 277.204,237.037 277.407 C 237.037 277.611,236.787 277.778,236.481 277.778 C 236.176 277.778,235.926 277.922,235.926 278.099 C 235.926 278.276,235.221 278.516,234.360 278.631 C 233.498 278.747,232.735 279.019,232.662 279.235 C 232.590 279.452,232.045 279.630,231.451 279.630 C 230.856 279.630,230.370 279.796,230.370 280.000 C 230.370 280.204,229.954 280.370,229.444 280.370 C 228.935 280.370,228.519 280.537,228.519 280.741 C 228.519 280.944,228.019 281.111,227.407 281.111 C 226.796 281.111,226.296 281.262,226.296 281.447 C 226.296 281.631,225.463 281.897,224.444 282.037 C 223.426 282.177,222.593 282.443,222.593 282.627 C 222.593 282.812,221.916 282.963,221.089 282.963 C 220.181 282.963,219.677 283.110,219.815 283.333 C 219.956 283.562,219.318 283.704,218.148 283.704 C 216.979 283.704,216.340 283.846,216.481 284.074 C 216.621 284.300,216.053 284.444,215.022 284.444 C 214.093 284.444,213.333 284.611,213.333 284.815 C 213.333 285.055,208.588 285.185,199.837 285.185 C 191.238 285.185,186.257 285.051,186.111 284.815 C 185.985 284.611,185.235 284.444,184.444 284.444 C 183.654 284.444,182.904 284.278,182.778 284.074 C 182.652 283.870,182.059 283.704,181.460 283.704 C 180.861 283.704,180.370 283.537,180.370 283.333 C 180.370 283.130,179.704 282.963,178.889 282.963 C 178.074 282.963,177.407 282.818,177.407 282.640 C 177.407 282.463,176.407 282.205,175.185 282.066 C 173.963 281.928,172.963 281.657,172.963 281.463 C 172.963 281.270,172.463 281.111,171.852 281.111 C 171.241 281.111,170.739 280.986,170.738 280.833 C 170.734 280.458,168.902 279.630,168.074 279.630 C 167.708 279.630,167.407 279.471,167.407 279.276 C 167.407 279.082,166.824 278.813,166.111 278.679 C 165.398 278.546,164.815 278.288,164.815 278.107 C 164.815 277.926,164.398 277.778,163.889 277.778 C 163.380 277.778,162.963 277.611,162.963 277.407 C 162.963 277.204,162.630 277.037,162.222 277.037 C 161.815 277.037,161.481 276.870,161.481 276.667 C 161.481 276.463,161.303 276.296,161.085 276.296 C 160.866 276.296,160.438 276.046,160.132 275.741 C 159.827 275.435,159.255 275.185,158.862 275.185 C 158.470 275.185,158.148 275.019,158.148 274.815 C 158.148 274.611,157.898 274.444,157.593 274.444 C 157.287 274.444,157.037 274.278,157.037 274.074 C 157.037 273.870,156.704 273.704,156.296 273.704 C 155.889 273.704,155.556 273.537,155.556 273.333 C 155.556 273.130,155.306 272.963,155.000 272.963 C 154.694 272.963,154.444 272.799,154.444 272.600 C 154.444 272.400,153.986 272.123,153.426 271.985 C 152.866 271.847,152.138 271.427,151.808 271.052 C 151.479 270.677,151.096 270.370,150.958 270.370 C 150.820 270.370,150.290 269.954,149.781 269.444 C 149.272 268.935,148.696 268.519,148.502 268.519 C 148.308 268.519,147.462 267.852,146.622 267.037 C 145.783 266.222,144.957 265.556,144.787 265.556 C 144.352 265.556,134.815 256.009,134.815 255.575 C 134.815 255.379,134.398 254.802,133.889 254.293 C 133.380 253.784,132.963 253.202,132.963 253.001 C 132.963 252.799,132.656 252.417,132.280 252.151 C 131.905 251.884,131.302 251.042,130.942 250.278 C 130.581 249.514,130.138 248.889,129.958 248.889 C 129.777 248.889,129.630 248.676,129.630 248.415 C 129.630 248.155,129.296 247.701,128.889 247.407 C 128.481 247.114,128.148 246.572,128.148 246.203 C 128.148 245.834,127.898 245.436,127.593 245.319 C 127.287 245.202,127.037 244.790,127.037 244.405 C 127.037 244.019,126.870 243.704,126.667 243.704 C 126.463 243.704,126.296 243.370,126.296 242.963 C 126.296 242.556,126.130 242.222,125.926 242.222 C 125.722 242.222,125.556 241.972,125.556 241.667 C 125.556 241.361,125.389 241.111,125.185 241.111 C 124.981 241.111,124.815 240.869,124.815 240.574 C 124.815 240.021,122.230 234.777,121.793 234.444 C 121.659 234.341,121.432 233.631,121.288 232.865 C 121.145 232.100,120.879 231.382,120.699 231.270 C 120.518 231.159,120.370 230.744,120.370 230.349 C 120.370 229.953,120.204 229.630,120.000 229.630 C 119.796 229.630,119.630 229.213,119.630 228.704 C 119.630 228.194,119.463 227.778,119.259 227.778 C 119.056 227.778,118.889 227.394,118.889 226.926 C 118.889 226.457,118.739 225.916,118.557 225.722 C 118.374 225.529,118.109 224.662,117.969 223.796 L 117.713 222.222 127.486 222.222 C 134.594 222.222,137.380 222.101,137.704 221.778 C 138.572 220.910,137.752 215.979,136.680 215.622 C 136.469 215.551,136.296 215.333,136.296 215.137 C 136.296 214.941,135.921 214.380,135.463 213.890 C 134.213 212.553,133.704 211.908,133.704 211.661 C 133.704 211.539,132.954 210.699,132.037 209.795 C 131.120 208.892,130.367 207.943,130.362 207.687 C 130.358 207.432,129.775 206.724,129.066 206.115 C 128.358 205.505,127.778 204.811,127.778 204.572 C 127.778 204.333,127.278 203.665,126.667 203.088 C 126.056 202.511,125.556 201.907,125.556 201.745 C 125.556 201.389,124.920 200.591,123.796 199.537 C 123.338 199.107,122.963 198.619,122.963 198.453 C 122.963 198.286,122.380 197.531,121.667 196.776 C 120.954 196.020,120.370 195.253,120.370 195.071 C 120.370 194.890,119.870 194.275,119.259 193.704 C 118.648 193.133,118.148 192.488,118.148 192.271 C 118.148 192.054,117.565 191.293,116.852 190.580 C 116.139 189.867,115.556 189.183,115.556 189.060 C 115.556 188.937,115.347 188.604,115.093 188.320 C 114.012 187.114,113.704 186.678,113.704 186.354 C 113.704 186.164,113.205 185.616,112.596 185.134 C 111.987 184.653,111.487 184.026,111.485 183.742 C 111.483 183.457,110.476 182.228,109.246 181.010 C 106.458 178.247,104.496 177.760,102.836 179.420 " stroke="none" fill="#ffffff" fill-rule="evenodd"></path></g></svg>