<svg width="58" height="58" viewBox="0 0 58 58" fill="none" xmlns="http://www.w3.org/2000/svg">
<path d="M29.0002 26.5835C30.3349 26.5835 31.4168 27.6655 31.4168 29.0002V41.0835C31.4168 42.4182 30.3349 43.5002 29.0002 43.5002C27.6655 43.5002 26.5835 42.4182 26.5835 41.0835V29.0002C26.5835 27.6655 27.6655 26.5835 29.0002 26.5835Z" fill="white"/>
<path d="M29.0002 21.7502C30.3349 21.7502 31.4168 20.6682 31.4168 19.3335C31.4168 17.9988 30.3349 16.9168 29.0002 16.9168C27.6655 16.9168 26.5835 17.9988 26.5835 19.3335C26.5835 20.6682 27.6655 21.7502 29.0002 21.7502Z" fill="white"/>
<path fill-rule="evenodd" clip-rule="evenodd" d="M4.8335 29.0002C4.8335 15.6533 15.6533 4.8335 29.0002 4.8335C42.347 4.8335 53.1668 15.6533 53.1668 29.0002C53.1668 42.347 42.347 53.1668 29.0002 53.1668C15.6533 53.1668 4.8335 42.347 4.8335 29.0002ZM29.0002 7.25016C16.988 7.25016 7.25016 16.988 7.25016 29.0002C7.25016 41.0124 16.988 50.7502 29.0002 50.7502C41.0124 50.7502 50.7502 41.0124 50.7502 29.0002C50.7502 16.988 41.0124 7.25016 29.0002 7.25016Z" fill="white"/>
</svg>
