<svg width="98" height="98" viewBox="0 0 98 98" fill="none" xmlns="http://www.w3.org/2000/svg">
<path d="M40.833 79.6248C40.833 78.4973 41.7471 77.5832 42.8747 77.5832H55.1247C56.2523 77.5832 57.1664 78.4973 57.1664 79.6248C57.1664 80.7524 56.2523 81.6665 55.1247 81.6665H42.8747C41.7471 81.6665 40.833 80.7524 40.833 79.6248Z" fill="white"/>
<path fill-rule="evenodd" clip-rule="evenodd" d="M34.708 8.1665C29.0701 8.1665 24.4997 12.7369 24.4997 18.3748V19.1387C24.4897 19.4138 24.4897 19.6895 24.4997 19.9654V78.0343C24.4897 78.3101 24.4897 78.5859 24.4997 78.8609L24.4997 79.6248C24.4997 85.2627 29.0701 89.8332 34.708 89.8332H63.2914C68.9293 89.8332 73.4997 85.2627 73.4997 79.6248V78.861C73.5097 78.5859 73.5097 78.3101 73.4997 78.0343V19.9654C73.5097 19.6895 73.5097 19.4138 73.4997 19.1387V18.3748C73.4997 12.7369 68.9293 8.1665 63.2914 8.1665H34.708ZM35.5664 12.2498C34.6191 12.2911 33.6887 12.5164 32.8271 12.9132C31.9544 13.3151 31.1695 13.8851 30.5173 14.5907C29.8652 15.2962 29.3585 16.1234 29.0263 17.025C28.7661 17.731 28.617 18.4718 28.583 19.221V78.7786C28.617 79.5279 28.7661 80.2687 29.0263 80.9747C29.3585 81.8763 29.8652 82.7035 30.5173 83.409C31.1695 84.1146 31.9544 84.6846 32.8271 85.0865C33.6887 85.4833 34.6191 85.7086 35.5665 85.7498H62.4329C63.3803 85.7086 64.3107 85.4833 65.1723 85.0865C66.045 84.6846 66.8298 84.1146 67.482 83.409C68.1342 82.7035 68.6409 81.8763 68.9731 80.9747C69.2333 80.2686 69.3824 79.5278 69.4164 78.7786V19.2211C69.3824 18.4718 69.2333 17.731 68.9731 17.025C68.6409 16.1234 68.1342 15.2962 67.482 14.5907C66.8298 13.8851 66.045 13.3151 65.1723 12.9132C64.3107 12.5164 63.3803 12.2911 62.433 12.2498H35.5664Z" fill="white"/>
</svg>
