<svg width="101" height="101" viewBox="0 0 101 101" fill="none" xmlns="http://www.w3.org/2000/svg">
<path fill-rule="evenodd" clip-rule="evenodd" d="M41.3719 19.124C44.0731 17.665 47.1861 16.8335 50.4998 16.8335C53.8136 16.8335 56.9266 17.665 59.6278 19.124L61.6041 17.2128C62.1271 16.7071 62.9749 16.7071 63.4978 17.2128C64.0207 17.7184 64.0207 18.5383 63.4978 19.044L61.9113 20.5781C66.3713 23.8921 69.246 29.1022 69.246 34.9617H31.7536C31.7536 29.1022 34.6284 23.8921 39.0883 20.5781L37.5019 19.044C36.979 18.5383 36.979 17.7184 37.5019 17.2128C38.0248 16.7071 38.8726 16.7071 39.3955 17.2128L41.3719 19.124ZM45.1438 27.1925C45.1438 28.6227 43.9448 29.7822 42.4657 29.7822C40.9867 29.7822 39.7877 28.6227 39.7877 27.1925C39.7877 25.7622 40.9867 24.6027 42.4657 24.6027C43.9448 24.6027 45.1438 25.7622 45.1438 27.1925ZM58.5339 29.7822C60.013 29.7822 61.212 28.6227 61.212 27.1925C61.212 25.7622 60.013 24.6027 58.5339 24.6027C57.0549 24.6027 55.8559 25.7622 55.8559 27.1925C55.8559 28.6227 57.0549 29.7822 58.5339 29.7822Z" fill="#0033AA"/>
<path d="M21.0415 41.4361C21.0415 39.2906 22.84 37.5514 25.0585 37.5514C27.2771 37.5514 29.0756 39.2906 29.0756 41.4361V56.9745C29.0756 59.1199 27.2771 60.8591 25.0585 60.8591C22.84 60.8591 21.0415 59.1199 21.0415 56.9745V41.4361Z" fill="#0033AA"/>
<path d="M39.7877 71.2181V80.2822C39.7877 82.4276 41.5862 84.1668 43.8048 84.1668C46.0233 84.1668 47.8218 82.4276 47.8218 80.2822V71.2181H53.1779V80.2822C53.1779 82.4276 54.9764 84.1668 57.1949 84.1668C59.4135 84.1668 61.212 82.4276 61.212 80.2822V71.2181H63.89C66.8481 71.2181 69.246 68.8992 69.246 66.0386V37.5514H31.7536V66.0386C31.7536 68.8992 34.1516 71.2181 37.1097 71.2181H39.7877Z" fill="#0033AA"/>
<path d="M71.9241 41.4361C71.9241 39.2906 73.7226 37.5514 75.9411 37.5514C78.1597 37.5514 79.9582 39.2906 79.9582 41.4361V56.9745C79.9582 59.1199 78.1597 60.8591 75.9411 60.8591C73.7226 60.8591 71.9241 59.1199 71.9241 56.9745V41.4361Z" fill="#0033AA"/>
</svg>
