<svg width="69" height="69" viewBox="0 0 69 69" fill="none" xmlns="http://www.w3.org/2000/svg">
<path d="M32.9282 20.5596C35.9382 20.8044 38.9482 19.0907 40.8294 16.918C42.6793 14.6841 43.9022 11.6851 43.5886 8.625C40.9235 8.74741 37.6313 10.3387 35.7501 12.5726C34.0256 14.5005 32.5519 17.6218 32.9282 20.5596Z" fill="white"/>
<path d="M36.5312 22.6682C38.4856 21.9192 40.9052 20.9919 43.557 21.1408C45.2501 21.2632 50.1413 21.7529 53.2768 26.2819C53.2624 26.2924 53.2305 26.3126 53.1833 26.3426C52.4076 26.8349 47.4798 29.9625 47.5389 36.1355C47.5978 43.49 53.736 46.2326 54.5391 46.5914C54.5915 46.6148 54.625 46.6318 54.625 46.6318L54.6062 46.6903C54.446 47.1962 53.3903 50.5298 50.9879 53.9456C48.7618 57.1281 46.4729 60.2495 42.8358 60.3107C41.1242 60.3405 39.9713 59.8542 38.7707 59.3478C37.508 58.8152 36.1927 58.2604 34.1193 58.2604C31.9716 58.2604 30.5961 58.83 29.272 59.3784C28.1218 59.8547 27.0105 60.315 25.4656 60.3719C21.9539 60.4943 19.2888 57.0057 17.0627 53.8232C12.5163 47.3969 9.03598 35.7071 13.7391 27.8119C16.028 23.8644 20.1981 21.3856 24.6817 21.3244C26.6378 21.2897 28.5032 22.013 30.1347 22.6456C31.3799 23.1283 32.4889 23.5583 33.3982 23.5583C34.2085 23.5583 35.2735 23.1502 36.5312 22.6682Z" fill="white"/>
</svg>
