<svg width="47966" height="47966" viewBox="0 0 47966 47966" fill="none" xmlns="http://www.w3.org/2000/svg">
<path fill-rule="evenodd" clip-rule="evenodd" d="M8993.77 7994.41C6234.31 7994.41 3997.31 10231.4 3997.31 12990.9V28979.5C3997.31 31739 6234.31 33976 8993.77 33976H20985.3C21537.1 33976 21984.6 33528.5 21984.6 32976.7C21984.6 32424.9 21537.1 31977.4 20985.3 31977.4H8993.77C7338.08 31977.4 5995.9 30635.2 5995.9 28979.5V21984.5H39971.8V22983.8C39971.8 23535.6 40419.3 23983.1 40971.1 23983.1C41522.9 23983.1 41970.4 23535.6 41970.4 22983.8V12990.9C41970.4 10231.4 39733.4 7994.41 36973.9 7994.41H8993.77ZM5995.9 12990.9C5995.9 11335.2 7338.08 9992.99 8993.77 9992.99H36973.9C38629.6 9992.99 39971.8 11335.2 39971.8 12990.9V15988.7H5995.9V12990.9Z" fill="#003FCA"/>
<path d="M8993.62 25981.5C8993.62 25429.7 9441.03 24982.2 9992.92 24982.2H17987.2C18539.1 24982.2 18986.5 25429.7 18986.5 25981.5C18986.5 26533.3 18539.1 26980.8 17987.2 26980.8H9992.92C9441.03 26980.8 8993.62 26533.3 8993.62 25981.5Z" fill="#003FCA"/>
<path d="M34576.9 38972.4C34576.9 39524.3 34129.6 39971.7 33577.6 39971.7C33025.8 39971.7 32578.3 39524.3 32578.3 38972.4C32578.3 38420.6 33025.8 37973.2 33577.6 37973.2C34129.6 37973.2 34576.9 38420.6 34576.9 38972.4Z" fill="#003FCA"/>
<path d="M30498.6 29887.5C31292.2 28839.7 32361 27980.1 34094.8 27980.1C35074.1 27980.1 35939.5 28256.5 36571.3 28786.1C37211.4 29322.9 37572 30088.6 37572 30965.2C37572 31745.4 37341.5 32353.6 36943.4 32846.2C36562.5 33317.9 36052.2 33651.3 35559.2 33936.3C34889.9 34322.8 34725.4 34485.7 34657 34616.8C34626.2 34675.7 34598.9 34761.5 34584.1 34931.4C34568.3 35110.8 34569.5 35335.3 34572.1 35670.6C34572.9 35793.2 34574.1 35928.3 34574.1 36074.4L34573.9 36077V36079.6V36085.5L34573.5 36099.5C34573.1 36109.9 34572.5 36122.1 34571.5 36136.1C34569.5 36163.9 34565.7 36199.7 34558.7 36240.6C34545.1 36320.2 34516.7 36434.9 34454.2 36556.8C34390 36681.1 34285.5 36821.4 34119.8 36928.8C33951.1 37038.1 33754.7 37090.2 33546.2 37090.2C33337.6 37090.2 33141.1 37038.1 32972.4 36928.8C32806.7 36821.4 32702.2 36681.1 32638.3 36556.8C32575.5 36434.9 32547.3 36320.2 32533.5 36240.6C32526.5 36199.7 32522.7 36163.9 32520.7 36136.1C32519.7 36122.1 32519.1 36109.9 32518.7 36099.5L32518.3 36085.5V36079.6V36077C32518.3 36077 32518.3 36074.4 33117.9 36074.4H32518.3V34825.2C32518.3 34239.3 32677 33773.4 33012.8 33379.5C33317.6 33021.9 33743.7 32757.5 34176 32504.5C34723.2 32172.5 35020.2 31967.9 35197.4 31759.6C35338.5 31593.7 35422.5 31402.5 35422.5 31018.3C35422.5 30682.2 35305.2 30459.5 35119.7 30308.4C34919 30145 34573.3 30014.3 34041.3 30014.3C33160.1 30014.3 32624.9 30418.4 32132.6 31103.1C32074.5 31184 31997.1 31249.2 31907.4 31292.5C31226.5 31623.1 30377.1 31154.6 30377.1 30350.8V30249.5C30377.1 30119 30419.6 29991.7 30498.6 29887.5Z" fill="#003FCA"/>
<path fill-rule="evenodd" clip-rule="evenodd" d="M33975.9 23983C28457 23983 23983 28457 23983 33975.9C23983 39494.8 28457 43968.8 33975.9 43968.8C39494.8 43968.8 43968.8 39494.8 43968.8 33975.9C43968.8 28457 39494.8 23983 33975.9 23983ZM25981.6 33975.9C25981.6 29560.8 29560.8 25981.6 33975.9 25981.6C38391 25981.6 41970.2 29560.8 41970.2 33975.9C41970.2 38391 38391 41970.2 33975.9 41970.2C29560.8 41970.2 25981.6 38391 25981.6 33975.9Z" fill="#003FCA"/>
</svg>
