<svg width="27936" height="27936" viewBox="0 0 27936 27936" fill="none" xmlns="http://www.w3.org/2000/svg">
<path fill-rule="evenodd" clip-rule="evenodd" d="M2328.12 2909.93C2328.12 2588.5 2588.7 2327.93 2910.12 2327.93H12222.1C12543.5 2327.93 12804.1 2588.5 12804.1 2909.93V14549.9C12804.1 14871.3 12543.5 15131.9 12222.1 15131.9H2910.12C2588.7 15131.9 2328.12 14871.3 2328.12 14549.9V2909.93ZM3492.12 3491.93V13967.9H11640.1V3491.93H3492.12Z" fill="#003FCA"/>
<path fill-rule="evenodd" clip-rule="evenodd" d="M15131.9 13385.9C15131.9 13064.5 15392.5 12803.9 15713.9 12803.9H25025.9C25347.2 12803.9 25607.9 13064.5 25607.9 13385.9V25025.9C25607.9 25347.3 25347.2 25607.9 25025.9 25607.9H15713.9C15392.5 25607.9 15131.9 25347.3 15131.9 25025.9V13385.9ZM16295.9 13967.9V24443.9H24443.9V13967.9H16295.9Z" fill="#003FCA"/>
<path fill-rule="evenodd" clip-rule="evenodd" d="M2328.12 18030.6C2328.12 17709.1 2588.7 17448.6 2910.12 17448.6H12222.1C12543.5 17448.6 12804.1 17709.1 12804.1 18030.6V25014.6C12804.1 25335.9 12543.5 25596.6 12222.1 25596.6H2910.12C2588.7 25596.6 2328.12 25335.9 2328.12 25014.6V18030.6ZM3492.12 18612.6V24432.6H11640.1V18612.6H3492.12Z" fill="#003FCA"/>
<path d="M15131.9 2909.93C15131.9 2588.5 15392.5 2327.93 15713.9 2327.93H25025.9C25347.2 2327.93 25607.9 2588.5 25607.9 2909.93V9893.93C25607.9 10215.4 25347.2 10475.9 25025.9 10475.9H15713.9C15392.5 10475.9 15131.9 10215.4 15131.9 9893.93V2909.93Z" fill="#003FCA"/>
</svg>
