<svg width="24" height="24" viewBox="0 0 24 24" fill="none" xmlns="http://www.w3.org/2000/svg">
<g clip-path="url(#clip0_9934_8898)">
<rect width="24" height="24" fill="white"/>
<path opacity="0.3" fill-rule="evenodd" clip-rule="evenodd" d="M24 0H0V24H24V0ZM22 2H2V22H22V2Z" fill="#5DE8F1"/>
<path opacity="0.4" d="M8 0L8 24" stroke="#5DE8F1" stroke-width="0.1"/>
<path opacity="0.4" d="M16 0L16 24" stroke="#5DE8F1" stroke-width="0.1"/>
<path opacity="0.4" d="M24 8L0 8" stroke="#5DE8F1" stroke-width="0.1"/>
<path opacity="0.4" d="M24 16L0 16" stroke="#5DE8F1" stroke-width="0.1"/>
<path opacity="0.4" d="M0 0L24.0016 23.9984" stroke="#5DE8F1" stroke-width="0.1"/>
<path opacity="0.4" d="M0 24L24 2.33381e-06" stroke="#5DE8F1" stroke-width="0.1"/>
<rect opacity="0.4" x="3" y="3" width="18" height="18" rx="2" stroke="#5DE8F1" stroke-width="0.1"/>
<rect opacity="0.4" x="4" y="2" width="16" height="20" rx="2" stroke="#5DE8F1" stroke-width="0.1"/>
<rect opacity="0.4" x="2" y="4" width="20" height="16" rx="2" stroke="#5DE8F1" stroke-width="0.1"/>
<rect opacity="0.4" x="2" y="2" width="20" height="20" rx="10" stroke="#5DE8F1" stroke-width="0.1"/>
<rect opacity="0.4" x="8" y="8" width="8" height="8" rx="4" stroke="#5DE8F1" stroke-width="0.1"/>
<rect opacity="0.4" x="0.05" y="0.05" width="23.9" height="23.9" stroke="#5DE8F1" stroke-width="0.1"/>
<path d="M10.5 2.5H2.5V12.5H10.5V2.5Z" stroke="#02070D" stroke-linecap="round" stroke-linejoin="round"/>
<path d="M21.5 11.5H13.5V21.5H21.5V11.5Z" stroke="#02070D" stroke-linecap="round" stroke-linejoin="round"/>
<path d="M10.5 15.49H2.5V21.49H10.5V15.49Z" stroke="#02070D" stroke-linecap="round" stroke-linejoin="round"/>
<path d="M21.5 2.5H13.5V8.5H21.5V2.5Z" fill="#02070D" stroke="#02070D" stroke-linecap="round" stroke-linejoin="round"/>
</g>
<defs>
<clipPath id="clip0_9934_8898">
<rect width="24" height="24" fill="white"/>
</clipPath>
</defs>
</svg>
