<svg width="211" height="211" viewBox="0 0 211 211" fill="none" xmlns="http://www.w3.org/2000/svg">
<path fill-rule="evenodd" clip-rule="evenodd" d="M66.052 61.5417C66.5684 54.6296 68.8871 46.581 74.2175 39.8714C80.493 31.9722 90.5979 26.375 105.5 26.375C120.401 26.375 130.506 31.9722 136.782 39.8714C142.112 46.581 144.431 54.6296 144.947 61.5417H162.646C165.073 61.5417 167.041 63.5097 167.041 65.9375V162.646C167.041 174.785 157.201 184.625 145.062 184.625H65.9372C53.7984 184.625 43.958 174.785 43.958 162.646V65.9375C43.958 63.5097 45.9261 61.5417 48.3538 61.5417H66.052ZM74.8737 61.5417C75.3783 56.1834 77.2417 50.1984 81.1013 45.3402C85.5712 39.7137 93.0496 35.1667 105.5 35.1667C117.95 35.1667 125.428 39.7137 129.898 45.3402C133.758 50.1984 135.621 56.1834 136.126 61.5417H74.8737ZM65.9372 83.5208C65.9372 85.9486 67.9053 87.9167 70.333 87.9167C72.7608 87.9167 74.7288 85.9486 74.7288 83.5208V70.3333H136.271V83.5208C136.271 85.9486 138.239 87.9167 140.666 87.9167C143.094 87.9167 145.062 85.9486 145.062 83.5208V70.3333H158.25V162.646C158.25 169.929 152.345 175.833 145.062 175.833H65.9372C58.6539 175.833 52.7497 169.929 52.7497 162.646V70.3333H65.9372V83.5208Z" fill="#003FCA"/>
</svg>
