<svg width="96" height="96" viewBox="0 0 96 96" fill="none" xmlns="http://www.w3.org/2000/svg">
<path d="M16 58C16 56.8954 16.8954 56 18 56H34C35.1046 56 36 56.8954 36 58C36 59.1046 35.1046 60 34 60H18C16.8954 60 16 59.1046 16 58Z" fill="#02070D"/>
<path fill-rule="evenodd" clip-rule="evenodd" d="M8 30C8 24.4772 12.4772 20 18 20H78C83.5229 20 88 24.4772 88 30V66C88 71.5228 83.5229 76 78 76H18C12.4772 76 8 71.5228 8 66V30ZM12 30C12 26.6863 14.6863 24 18 24H78C81.3137 24 84 26.6863 84 30V36H12V30ZM84 66C84 69.3137 81.3137 72 78 72H18C14.6863 72 12 69.3137 12 66V48H84V66Z" fill="#02070D"/>
</svg>
