<svg width="82" height="82" viewBox="0 0 82 82" fill="none" xmlns="http://www.w3.org/2000/svg">
<path d="M29.0415 29.0418C28.098 29.0418 27.3332 29.8067 27.3332 30.7502C27.3332 31.6937 28.098 32.4585 29.0415 32.4585H52.9582C53.9017 32.4585 54.6665 31.6937 54.6665 30.7502C54.6665 29.8067 53.9017 29.0418 52.9582 29.0418H29.0415Z" fill="white"/>
<path d="M29.0415 39.2918C28.098 39.2918 27.3332 40.0567 27.3332 41.0002C27.3332 41.9436 28.098 42.7085 29.0415 42.7085H52.9582C53.9017 42.7085 54.6665 41.9436 54.6665 41.0002C54.6665 40.0567 53.9017 39.2918 52.9582 39.2918H29.0415Z" fill="white"/>
<path d="M27.3332 51.2502C27.3332 50.3067 28.098 49.5418 29.0415 49.5418H52.9582C53.9017 49.5418 54.6665 50.3067 54.6665 51.2502C54.6665 52.1936 53.9017 52.9585 52.9582 52.9585H29.0415C28.098 52.9585 27.3332 52.1936 27.3332 51.2502Z" fill="white"/>
<path fill-rule="evenodd" clip-rule="evenodd" d="M16.5828 7.33391C16.0942 6.84533 15.3594 6.69917 14.7211 6.96359C14.0827 7.228 13.6665 7.85092 13.6665 8.54188V73.4585C13.6665 74.1495 14.0827 74.7724 14.7211 75.0368C15.3594 75.3013 16.0942 75.1551 16.5828 74.6665L20.4998 70.7495L24.4169 74.6665C25.084 75.3337 26.1657 75.3337 26.8328 74.6665L30.7498 70.7495L34.6669 74.6665C35.334 75.3337 36.4157 75.3337 37.0828 74.6665L40.9998 70.7495L44.9169 74.6665C45.584 75.3337 46.6657 75.3337 47.3328 74.6665L51.2498 70.7495L55.1669 74.6665C55.834 75.3337 56.9157 75.3337 57.5828 74.6665L61.4998 70.7495L65.4169 74.6665C65.9054 75.1551 66.6402 75.3013 67.2786 75.0368C67.9169 74.7724 68.3332 74.1495 68.3332 73.4585V8.54188C68.3332 7.85092 67.9169 7.228 67.2786 6.96359C66.6402 6.69917 65.9054 6.84533 65.4169 7.33391L61.4998 11.2509L57.5828 7.33391C56.9157 6.66676 55.834 6.66676 55.1669 7.33391L51.2498 11.2509L47.3328 7.33391C46.6657 6.66676 45.584 6.66676 44.9169 7.33391L40.9998 11.2509L37.0828 7.33391C36.4157 6.66676 35.334 6.66676 34.6669 7.33391L30.7498 11.2509L26.8328 7.33391C26.1657 6.66676 25.084 6.66676 24.4169 7.33391L20.4998 11.2509L16.5828 7.33391ZM19.2919 67.1256L17.0832 69.3343V12.6662L19.2919 14.8749C19.959 15.542 21.0407 15.542 21.7078 14.8749L25.6248 10.9578L29.5419 14.8749C30.209 15.542 31.2907 15.542 31.9578 14.8749L35.8748 10.9578L39.7919 14.8749C40.459 15.542 41.5407 15.542 42.2078 14.8749L46.1248 10.9578L50.0419 14.8749C50.709 15.542 51.7907 15.542 52.4578 14.8749L56.3748 10.9578L60.2919 14.8749C60.959 15.542 62.0407 15.542 62.7078 14.8749L64.9165 12.6662V69.3343L62.7078 67.1256C62.0407 66.4584 60.959 66.4584 60.2919 67.1256L56.3748 71.0426L52.4578 67.1256C51.7907 66.4584 50.709 66.4584 50.0419 67.1256L46.1248 71.0426L42.2078 67.1256C41.5407 66.4584 40.459 66.4584 39.7919 67.1256L35.8748 71.0426L31.9578 67.1256C31.2907 66.4584 30.209 66.4584 29.5419 67.1256L25.6248 71.0426L21.7078 67.1256C21.0407 66.4584 19.959 66.4584 19.2919 67.1256Z" fill="white"/>
</svg>
